<?xml version="1.0" encoding="utf-8"?>
<!-- Generator: Adobe Illustrator 23.1.0, SVG Export Plug-In . SVG Version: 6.00 Build 0)  -->
<svg version="1.1" id="Calque_1" xmlns="http://www.w3.org/2000/svg" xmlns:xlink="http://www.w3.org/1999/xlink" x="0px" y="0px"
	 viewBox="0 0 1280 1230" style="enable-background:new 0 0 1280 1230;" xml:space="preserve">
<style type="text/css">
	.st0{fill:#FFFFFF;}
</style>
<circle class="st0" cx="660" cy="615" r="577.1"/>
<g transform="translate(0.000000,1230.000000) scale(0.100000,-0.100000)">
	<path d="M5773.1,9998.5c-1.9-1.9-47.1-6.3-100.4-10c-661.2-47.1-1263.5-270.4-1777.3-657.5c-234-176.9-471.8-416.6-651.2-657.5
		c-359.5-483.1-583.4-1074-632.4-1668.8c-3.8-44.5-10-115.4-13.8-156.8c-11.3-114.2-1.3-323.1,26.3-542.7
		c70.3-565.9,284.2-1101.6,620.5-1552.7c100.4-135.5,184.4-232.1,313.7-360.7c266.6-266.6,543.9-466.1,875.2-627.4
		c354.5-172.5,689.5-267.9,1116.7-318.1c136.8-15.7,517.6-15.7,658.7,0c256.6,28.9,468,73.4,695.1,146.2
		c309.9,99.8,659.4,277.3,909.7,461.7c40.2,29.5,43.3,30.7,56.5,22c7.5-5,232.8-212.7,500.6-460.5
		c1050.8-972.4,1281.1-1185.1,1312.4-1208.3c43.9-33.9,134.3-76.5,195.7-93.5c41.4-11.3,67.1-13.8,147.4-13.8
		c112.3,0,161.9,10.7,249.7,52.7c66.5,32,101,55.2,154.3,106c53.3,51.4,90.3,102.3,123,170.6c41.4,87.2,52.1,138,52.7,247.2
		c0.6,111.7-11.3,166.9-55.8,257.2c-55.2,112.3,72.8-10.7-1444.8,1392.1c-245.3,227.1-446.7,416.6-446.7,420.3
		c0,3.8,22.6,45.2,50.8,91.6c64,107.3,168.8,320.6,217.7,442.3c239,598.5,299.3,1249.7,173.2,1879
		c-181.9,911.6-727.7,1687-1528.3,2171.3c-111.7,67.8-348.2,183.8-475.5,233.4c-377.7,148.1-764.8,224-1198.3,234.6
		C5831.5,10000.4,5775,10000.4,5773.1,9998.5z M6149.6,8817.8c389.6-52.7,749.1-205.8,1050.8-446.7c38.3-30.1,109.8-94.7,159.4-143
		c288.6-281.1,484.3-618,580.3-997.5c45.2-178.2,62.7-328.1,62.1-523.8c-0.6-309.3-60.2-586-186.3-863.9
		c-151.8-335.6-405.3-642.4-713.9-863.3c-266-190.1-581.6-315.6-927.2-369.5c-80.3-12.5-114.8-13.8-291.7-13.8
		s-211.4,1.3-291.7,13.8c-242.8,38.3-425.4,94.7-636.8,198.9c-139.3,68.4-230.9,124.2-344.4,209.5c-463.6,349.4-756.6,852-835,1431
		c-14.4,103.5-18.8,318.1-10,427.2c69.6,824.4,600.4,1528.3,1374.6,1823.1c173.8,65.9,360.7,107.9,580.3,129.9
		C5784.4,8836,6074.9,8828.4,6149.6,8817.8z"/>
</g>
</svg>
