<svg id="Calque_1" data-name="Calque 1" xmlns="http://www.w3.org/2000/svg" viewBox="0 0 1685.78 1082.69">
  <defs>
    <style>
      .cls-1, .cls-2 {
        fill: #ed1c24;
      }

      .cls-2, .cls-3 {
        stroke: #000;
        stroke-miterlimit: 10;
      }

      .cls-2 {
        stroke-width: 15px;
      }

      .cls-3 {
        fill: #fff;
        stroke-width: 50px;
      }
    </style>
  </defs>
  <title>Pokeball_bg</title>
  <polyline class="cls-1" points="1525.28 1082.19 1685.78 1081.69 1685.78 0.69 26.78 1.69"/>
  <path class="cls-2" d="M424,127a26.07,26.07,0,0,1,2.49,1.17L412.26,117.9C416,121.23,419.63,124.5,424,127Z" transform="translate(-234.72 1.19)"/>
  <path class="cls-2" d="M258.3,7c31,23,60.44,44.56,93.7,68,3.52,2.29,6.91,4.59,10.23,6.88L258.36,7Z" transform="translate(-234.72 1.19)"/>
  <path class="cls-2" d="M848.71,432.71l-32.13-23.18Q832.71,421.2,848.71,432.71Z" transform="translate(-234.72 1.19)"/>
  <path class="cls-2" d="M481,168c82,59,153,110,234,169a39.53,39.53,0,0,0,4.45,2.47L460.83,152.93C467.23,158,473.7,163,481,168Z" transform="translate(-234.72 1.19)"/>
  <path class="cls-2" d="M1077,598c75,53,138,99,212,153,65,46.73,121.71,88.42,186.13,133.53L1066.47,589.78C1069.9,592.52,1073.35,595.26,1077,598Z" transform="translate(-234.72 1.19)"/>
  <path class="cls-2" d="M351.23,73.88l61,44A93,93,0,0,0,405,112C385.52,99.29,369.61,86.59,351.23,73.88Z" transform="translate(-234.72 1.19)"/>
  <path class="cls-2" d="M426.49,128.17l34.34,24.76C453.21,147,445.7,141,437,135,432.89,132.53,430.12,130.08,426.49,128.17Z" transform="translate(-234.72 1.19)"/>
  <path class="cls-2" d="M1735.89,1072.74c-18.36-13.4-46.05-33.5-59.7-43.08l59.57,43.07Z" transform="translate(-234.72 1.19)"/>
  <path class="cls-2" d="M1475.13,884.53,1519,916.15c-8.36-6.38-16.34-12.49-26-19.15Q1484,890.71,1475.13,884.53Z" transform="translate(-234.72 1.19)"/>
  <path class="cls-2" d="M1519,916.15c2.94,2.24,5.92,4.51,9,6.85,49,35,92,66,141,102,7.29,5,14.32,9.83,21.19,14.66Z" transform="translate(-234.72 1.19)"/>
  <path class="cls-2" d="M719.45,339.47l97.13,70.06C786.33,387.67,755.67,365.34,724,342A41.38,41.38,0,0,0,719.45,339.47Z" transform="translate(-234.72 1.19)"/>
  <path class="cls-2" d="M848.71,432.71l217.76,157.07c-4.07-3.26-8.12-6.52-12.47-9.78C982.31,528.26,916.06,481.18,848.71,432.71Z" transform="translate(-234.72 1.19)"/>
  <circle class="cls-3" cx="919.28" cy="669.19" r="200">
  </circle>
</svg>
